Coordinates
version=1
nRows=12
nColumns=24
inDegrees=yes

Units are S.I. units (second, meters, Newtons, ...)
Angles are in degrees.

endheader
time	pelvis_tilt	pelvis_list	pelvis_rotation	pelvis_tx	pelvis_ty	pelvis_tz	hip_flexion_r	hip_adduction_r	hip_rotation_r	knee_angle_r	ankle_angle_r	subtalar_angle_r	mtp_angle_r	hip_flexion_l	hip_adduction_l	hip_rotation_l	knee_angle_l	ankle_angle_l	subtalar_angle_l	mtp_angle_l	lumbar_extension	lumbar_bending	lumbar_rotation
      4.73000000	      4.93455672	      5.42873266	      5.78226256	     -2.69472159	      1.04711980	      0.32824044	     13.55817125	     -3.75503007	    -10.97342205	     -4.14749323	      5.50867420	     -9.29712257	      0.00000000	    -25.63923096	      7.78114863	      5.21239850	     -4.05532395	      1.63596901	    -17.59587809	      0.00000000	    -21.77256963	     -4.71016858	    -18.72549563
      4.74000000	      5.29789809	      5.30755743	      5.94639142	     -2.68056514	      1.04658171	      0.32938657	     13.27281819	     -3.49930958	    -10.90931076	     -5.45407008	      4.68337328	    -10.00693951	      0.00000000	    -25.90429084	      7.32458097	      4.53258005	     -5.59269428	      1.68191991	    -16.31125669	      0.00000000	    -22.01959023	     -4.58314485	    -18.83751569
      4.75000000	      5.62354766	      5.09915765	      6.10167951	     -2.66615517	      1.04618990	      0.33059748	     12.97470260	     -3.15379438	    -10.55858511	     -6.78199988	      3.64180015	    -11.11289986	      0.00000000	    -25.98691432	      6.76305617	      3.57827500	     -7.35354000	      1.68638800	    -14.81508354	      0.00000000	    -22.16878666	     -4.37960751	    -18.90433837
      4.76000000	      5.85648886	      4.79068783	      6.20392942	     -2.65154451	      1.04589346	      0.33192397	     12.77034313	     -2.70077593	     -9.99249821	     -8.16420489	      2.60306576	    -12.45427291	      0.00000000	    -25.82421023	      6.09769304	      2.29905689	     -9.33253206	      1.53292724	    -13.12142695	      0.00000000	    -22.16074231	     -4.11370668	    -18.82602768
      4.77000000	      6.10460235	      4.37492058	      6.26400939	     -2.63681278	      1.04584513	      0.33330696	     12.53919819	     -2.12451150	     -9.35233718	     -9.56118407	      1.81500870	    -13.79026638	      0.00000000	    -25.53896169	      5.29621314	      0.79135092	    -11.50866142	      1.08921875	    -11.41739016	      0.00000000	    -22.13051678	     -3.74826283	    -18.66128752
      4.78000000	      6.34728284	      3.87184148	      6.30968336	     -2.62200770	      1.04603750	      0.33468544	     12.28375856	     -1.44454735	     -8.68999984	    -10.92438757	      1.20469397	    -15.21904706	      0.00000000	    -25.12902153	      4.36863941	     -0.78769982	    -13.85028976	      0.22298254	     -9.84366407	      0.00000000	    -22.06116202	     -3.29655881	    -18.42231692
      4.79000000	      6.59797358	      3.31935459	      6.28485933	     -2.60718490	      1.04647416	      0.33610377	     11.99899408	     -0.70391596	     -8.15403844	    -12.26965748	      1.24629688	    -16.10224896	      0.00000000	    -24.61321718	      3.36396374	     -2.48786521	    -16.34423926	     -1.09343403	     -8.41139628	      0.00000000	    -21.97911479	     -2.81358712	    -18.09553876
      4.80000000	      6.82729227	      2.71227602	      6.24257298	     -2.59236011	      1.04711830	      0.33749782	     11.63024664	      0.11901306	     -7.61746550	    -13.43712660	      1.65854830	    -16.79672461	      0.00000000	    -23.98267611	      2.27841090	     -4.06348569	    -18.94413270	     -2.87997655	     -7.39032319	      0.00000000	    -21.85636135	     -2.27430032	    -17.74643110
      4.81000000	      7.01686342	      2.10647957	      6.21173656	     -2.57760566	      1.04795777	      0.33884630	     11.16890764	      0.94825429	     -7.21444658	    -14.37385539	      2.27072277	    -17.29054029	      0.00000000	    -23.20999664	      1.16320771	     -5.43473614	    -21.65030741	     -5.05220704	     -6.70718161	      0.00000000	    -21.69041433	     -1.74101680	    -17.38247823
      4.82000000	      7.15059035	      1.51456215	      6.22960621	     -2.56299193	      1.04895309	      0.34011137	     10.60078711	      1.76225966	     -6.96644541	    -15.01506123	      3.00993487	    -17.57300952	      0.00000000	    -22.26295053	      0.04136856	     -6.48144129	    -24.46467632	     -7.48319048	     -6.47266120	      0.00000000	    -21.48070468	     -1.21460116	    -17.04966781
      4.83000000	      7.18879779	      0.94405092	      6.29497552	     -2.54857900	      1.04999943	      0.34133185	      9.95322510	      2.56132181	     -6.76943941	    -15.31796851	      3.80986000	    -17.76542564	      0.00000000	    -21.07647926	     -1.06421692	     -7.20823183	    -27.41135198	     -9.91215759	     -6.59491269	      0.00000000	    -21.19195167	     -0.71532540	    -16.73303635
      4.84000000	      7.08486132	      0.44849150	      6.47529693	     -2.53448412	      1.05101915	      0.34238015	      9.30117986	      3.25733866	     -6.71644409	    -15.32750905	      4.58950120	    -17.82353326	      0.00000000	    -19.59356056	     -2.06035470	     -7.41480450	    -30.46206593	    -12.43959474	     -7.43756484	      0.00000000	    -20.79402077	     -0.28366355	    -16.52492964
